<svg xmlns="http://www.w3.org/2000/svg" viewBox="0 0 32 32" fill="none">
  <rect width="32" height="32" rx="8" fill="#1a56f5"/>
  <path d="M9.813 15.904L9 18.75l-.813-2.846a4.5 4.5 0 00-3.09-3.09L2.25 12l2.846-.813a4.5 4.5 0 003.09-3.09L9 5.25l.813 2.846a4.5 4.5 0 003.09 3.09L15.75 12l-2.846.813a4.5 4.5 0 00-3.09 3.09zM22.259 8.715L22 9.75l-.259-1.035a3.375 3.375 0 00-2.455-2.456L18.25 6l1.036-.259a3.375 3.375 0 002.455-2.456L22 2.25l.259 1.035a3.375 3.375 0 002.455 2.456L25.75 6l-1.036.259a3.375 3.375 0 00-2.455 2.456z" stroke="white" stroke-width="1.5" stroke-linecap="round" stroke-linejoin="round"/>
</svg>
