<svg xmlns="http://www.w3.org/2000/svg" xmlns:xlink="http://www.w3.org/1999/xlink" width="350" zoomAndPan="magnify" viewBox="0 0 262.5 262.500001" height="350" preserveAspectRatio="xMidYMid meet" version="1.0"><defs><g/><clipPath id="0f1d95d3b3"><path d="M 1.308594 35 L 228 35 L 228 262 L 1.308594 262 Z M 1.308594 35 " clip-rule="nonzero"/></clipPath><clipPath id="898fad4daa"><rect x="0" width="12" y="0" height="22"/></clipPath><clipPath id="5f2cdd9fd8"><rect x="0" width="18" y="0" height="12"/></clipPath></defs><path fill="#1a56f5" d="M 101.9375 104.160156 C 101.320312 102.519531 100.339844 101.234375 99.007812 100.308594 C 97.671875 99.382812 96.179688 98.917969 94.535156 98.917969 C 92.890625 98.820312 91.375 99.230469 89.988281 100.152344 C 88.601562 101.078125 87.601562 102.414062 86.980469 104.160156 L 47.824219 198.816406 C 47.519531 199.738281 47.363281 200.5625 47.363281 201.28125 C 47.363281 203.230469 47.929688 204.851562 49.058594 206.136719 C 50.191406 207.421875 51.933594 208.0625 54.300781 208.0625 C 55.84375 208.0625 57.230469 207.601562 58.464844 206.675781 C 59.699219 205.75 60.621094 204.464844 61.238281 202.820312 L 70.375 180.929688 L 117.65625 180.929688 L 126.910156 202.820312 C 127.527344 204.363281 128.476562 205.621094 129.761719 206.597656 C 131.046875 207.574219 132.460938 208.0625 134.003906 208.0625 C 135.851562 208.0625 137.519531 207.371094 139.011719 205.984375 C 140.503906 204.59375 141.246094 202.773438 141.246094 200.511719 C 141.246094 199.484375 141.039062 198.457031 140.628906 197.429688 L 101.941406 104.164062 Z M 76.554688 166.132812 L 93.867188 124.65625 L 111.398438 166.132812 Z M 76.554688 166.132812 " fill-opacity="1" fill-rule="nonzero"/><path fill="#1a56f5" d="M 169.535156 101.769531 C 167.941406 100.28125 166.113281 99.535156 164.0625 99.535156 C 161.597656 99.535156 159.589844 100.28125 158.046875 101.769531 C 156.507812 103.261719 155.738281 105.140625 155.738281 107.398438 L 155.738281 199.582031 C 155.738281 201.847656 156.453125 203.722656 157.894531 205.210938 C 159.332031 206.703125 161.285156 207.445312 163.753906 207.445312 C 165.910156 207.445312 167.785156 206.703125 169.382812 205.210938 C 170.972656 203.722656 171.820312 201.847656 171.925781 199.582031 L 171.925781 107.398438 C 171.925781 105.140625 171.128906 103.265625 169.535156 101.769531 Z M 169.535156 101.769531 " fill-opacity="1" fill-rule="nonzero"/><path fill="#1a56f5" d="M 258.445312 60.53125 L 258.445312 60.523438 C 258.445312 60.523438 258.210938 60.492188 258.210938 60.492188 L 257.433594 60.386719 C 257.433594 60.386719 257.417969 60.382812 257.410156 60.382812 L 257.289062 60.367188 L 257.296875 60.371094 C 248.984375 59.730469 241.039062 57.671875 233.839844 54.121094 C 227.839844 51.324219 222.328125 47.546875 217.515625 42.734375 C 206.855469 32.074219 201.246094 17.996094 200.25 2.746094 C 200.246094 2.6875 200.242188 2.628906 200.238281 2.566406 C 200.222656 2.375 200.203125 2.183594 200.195312 1.988281 C 199.933594 0.898438 198.957031 0.0859375 197.785156 0.0859375 C 196.484375 0.0859375 195.425781 1.09375 195.320312 2.367188 L 195.316406 2.367188 C 195.316406 2.367188 195.285156 2.566406 195.285156 2.566406 L 195.171875 3.394531 C 195.171875 3.394531 195.171875 3.410156 195.171875 3.417969 L 195.15625 3.539062 L 195.160156 3.535156 C 194.160156 16.6875 189.703125 28.9375 181.511719 38.828125 C 180.269531 40.363281 178.941406 41.847656 177.523438 43.265625 C 166.863281 53.925781 152.785156 59.535156 137.535156 60.53125 C 137.476562 60.535156 137.417969 60.539062 137.359375 60.542969 C 137.164062 60.558594 136.972656 60.578125 136.777344 60.585938 C 135.6875 60.847656 134.875 61.824219 134.875 62.996094 C 134.875 64.296875 135.882812 65.355469 137.15625 65.460938 L 137.15625 65.464844 C 137.15625 65.464844 137.355469 65.492188 137.355469 65.492188 L 138.183594 65.609375 C 138.183594 65.609375 138.195312 65.609375 138.203125 65.609375 L 138.328125 65.628906 L 138.320312 65.621094 C 153.269531 66.757812 167.046875 72.347656 177.519531 82.824219 C 180.984375 86.289062 183.90625 90.113281 186.320312 94.222656 C 191.667969 102.84375 194.621094 112.78125 195.316406 123.289062 C 195.320312 123.335938 195.324219 123.382812 195.328125 123.429688 C 195.34375 123.628906 195.363281 123.832031 195.375 124.035156 C 195.636719 125.109375 196.613281 125.914062 197.785156 125.914062 C 199.085938 125.914062 200.140625 124.917969 200.246094 123.660156 L 200.253906 123.660156 C 200.253906 123.660156 200.289062 123.429688 200.289062 123.429688 L 200.394531 122.648438 C 200.394531 122.648438 200.394531 122.632812 200.398438 122.625 L 200.414062 122.507812 L 200.40625 122.511719 C 201.507812 108.214844 206.816406 95.015625 216.691406 84.808594 C 217.320312 84.101562 217.96875 83.410156 218.636719 82.730469 C 229.148438 72.070312 243.03125 66.460938 258.070312 65.464844 C 258.117188 65.464844 258.164062 65.460938 258.210938 65.457031 C 258.410156 65.4375 258.613281 65.421875 258.816406 65.410156 C 259.890625 65.148438 260.691406 64.171875 260.691406 63 C 260.691406 61.699219 259.699219 60.640625 258.441406 60.539062 Z M 258.445312 60.53125 " fill-opacity="1" fill-rule="nonzero"/><g clip-path="url(#0f1d95d3b3)"><path fill="#1a56f5" d="M 212.378906 124.59375 L 212.378906 231.402344 C 212.378906 239.828125 205.550781 246.660156 197.121094 246.660156 L 31.828125 246.660156 C 23.398438 246.660156 16.570312 239.828125 16.570312 231.402344 L 16.570312 66.105469 C 16.570312 57.679688 23.398438 50.847656 31.828125 50.847656 L 136.089844 50.847656 C 140.304688 50.847656 143.71875 47.429688 143.71875 43.21875 C 143.71875 39.007812 140.304688 35.589844 136.089844 35.589844 L 31.828125 35.589844 C 14.972656 35.589844 1.308594 49.253906 1.308594 66.105469 L 1.308594 231.402344 C 1.308594 248.253906 14.972656 261.917969 31.828125 261.917969 L 197.121094 261.917969 C 213.976562 261.917969 227.640625 248.253906 227.640625 231.402344 L 227.640625 124.59375 C 227.640625 120.382812 224.222656 116.964844 220.011719 116.964844 C 215.796875 116.964844 212.382812 120.382812 212.382812 124.59375 Z M 212.378906 124.59375 " fill-opacity="1" fill-rule="nonzero"/></g><g transform="matrix(1, 0, 0, 1, 213, 120)"><g clip-path="url(#898fad4daa)"><g fill="#ffffff" fill-opacity="1"><g transform="translate(8.999961, 20.881001)"><g><path d="M -5.5 -4.40625 L -4.578125 -4.40625 L -4.578125 -2.828125 L 0 -2.828125 L 0 -1.734375 L -4.578125 -1.734375 L -4.578125 -0.15625 L -5.5 -0.15625 Z M -5.5 -4.40625 "/></g></g></g><g fill="#ffffff" fill-opacity="1"><g transform="translate(8.999961, 16.855966)"><g><path d="M 0.078125 -2.40625 C 0.078125 -2 -0.00390625 -1.640625 -0.171875 -1.328125 C -0.335938 -1.023438 -0.582031 -0.789062 -0.90625 -0.625 C -1.226562 -0.457031 -1.617188 -0.375 -2.078125 -0.375 C -2.523438 -0.375 -2.910156 -0.457031 -3.234375 -0.625 C -3.566406 -0.789062 -3.816406 -1.023438 -3.984375 -1.328125 C -4.148438 -1.640625 -4.234375 -2 -4.234375 -2.40625 C -4.234375 -2.8125 -4.148438 -3.164062 -3.984375 -3.46875 C -3.816406 -3.78125 -3.566406 -4.019531 -3.234375 -4.1875 C -2.910156 -4.363281 -2.523438 -4.453125 -2.078125 -4.453125 C -1.617188 -4.453125 -1.226562 -4.363281 -0.90625 -4.1875 C -0.582031 -4.019531 -0.335938 -3.78125 -0.171875 -3.46875 C -0.00390625 -3.164062 0.078125 -2.8125 0.078125 -2.40625 Z M -0.8125 -2.40625 C -0.8125 -3.050781 -1.234375 -3.375 -2.078125 -3.375 C -2.515625 -3.375 -2.832031 -3.289062 -3.03125 -3.125 C -3.238281 -2.957031 -3.34375 -2.71875 -3.34375 -2.40625 C -3.34375 -1.757812 -2.921875 -1.4375 -2.078125 -1.4375 C -1.234375 -1.4375 -0.8125 -1.757812 -0.8125 -2.40625 Z M -0.8125 -2.40625 "/></g></g></g><g fill="#ffffff" fill-opacity="1"><g transform="translate(8.999961, 12.033152)"><g><path d="M 0.078125 -2.40625 C 0.078125 -2 -0.00390625 -1.640625 -0.171875 -1.328125 C -0.335938 -1.023438 -0.582031 -0.789062 -0.90625 -0.625 C -1.226562 -0.457031 -1.617188 -0.375 -2.078125 -0.375 C -2.523438 -0.375 -2.910156 -0.457031 -3.234375 -0.625 C -3.566406 -0.789062 -3.816406 -1.023438 -3.984375 -1.328125 C -4.148438 -1.640625 -4.234375 -2 -4.234375 -2.40625 C -4.234375 -2.8125 -4.148438 -3.164062 -3.984375 -3.46875 C -3.816406 -3.78125 -3.566406 -4.019531 -3.234375 -4.1875 C -2.910156 -4.363281 -2.523438 -4.453125 -2.078125 -4.453125 C -1.617188 -4.453125 -1.226562 -4.363281 -0.90625 -4.1875 C -0.582031 -4.019531 -0.335938 -3.78125 -0.171875 -3.46875 C -0.00390625 -3.164062 0.078125 -2.8125 0.078125 -2.40625 Z M -0.8125 -2.40625 C -0.8125 -3.050781 -1.234375 -3.375 -2.078125 -3.375 C -2.515625 -3.375 -2.832031 -3.289062 -3.03125 -3.125 C -3.238281 -2.957031 -3.34375 -2.71875 -3.34375 -2.40625 C -3.34375 -1.757812 -2.921875 -1.4375 -2.078125 -1.4375 C -1.234375 -1.4375 -0.8125 -1.757812 -0.8125 -2.40625 Z M -0.8125 -2.40625 "/></g></g></g><g fill="#ffffff" fill-opacity="1"><g transform="translate(8.999961, 7.210337)"><g><path d="M 0.078125 -1.71875 C 0.078125 -1.34375 -0.0195312 -1.054688 -0.21875 -0.859375 C -0.425781 -0.671875 -0.734375 -0.578125 -1.140625 -0.578125 L -5.8125 -0.578125 L -5.8125 -1.609375 L -1.1875 -1.609375 C -0.9375 -1.609375 -0.8125 -1.710938 -0.8125 -1.921875 C -0.8125 -1.984375 -0.816406 -2.050781 -0.828125 -2.125 L -0.8125 -2.171875 L -0.015625 -2.265625 C 0.015625 -2.210938 0.0351562 -2.132812 0.046875 -2.03125 C 0.0664062 -1.9375 0.078125 -1.832031 0.078125 -1.71875 Z M 0.078125 -1.71875 "/></g></g></g><g fill="#ffffff" fill-opacity="1"><g transform="translate(8.999961, 4.825264)"><g><path d="M 0 -3.484375 L 0 -0.21875 L -0.859375 -0.21875 L -3.25 -2.234375 L -3.328125 -2.203125 L -3.328125 -0.3125 L -4.15625 -0.3125 L -4.15625 -3.453125 L -3.296875 -3.453125 L -0.90625 -1.4375 L -0.828125 -1.46875 L -0.828125 -3.484375 Z M 0 -3.484375 "/></g></g></g></g></g><g transform="matrix(1, 0, 0, 1, 122, 36)"><g clip-path="url(#5f2cdd9fd8)"><g fill="#ffffff" fill-opacity="1"><g transform="translate(0.736928, 8.836891)"><g><path d="M 4.203125 -5.5 L 4.203125 -4.59375 L 1.796875 -4.59375 L 1.796875 -3.140625 L 3.984375 -3.140625 L 3.984375 -2.234375 L 1.796875 -2.234375 L 1.796875 0 L 0.71875 0 L 0.71875 -5.5 Z M 4.203125 -5.5 "/></g></g></g><g fill="#ffffff" fill-opacity="1"><g transform="translate(5.089455, 8.836891)"><g><path d="M 0.59375 0 L 0.59375 -4.15625 L 1.609375 -4.15625 L 1.609375 -3.53125 L 1.6875 -3.515625 C 1.789062 -3.742188 1.921875 -3.910156 2.078125 -4.015625 C 2.242188 -4.128906 2.441406 -4.1875 2.671875 -4.1875 C 2.910156 -4.1875 3.09375 -4.144531 3.21875 -4.0625 L 3.046875 -3.171875 L 2.953125 -3.15625 C 2.890625 -3.175781 2.828125 -3.191406 2.765625 -3.203125 C 2.703125 -3.222656 2.625 -3.234375 2.53125 -3.234375 C 2.238281 -3.234375 2.015625 -3.128906 1.859375 -2.921875 C 1.710938 -2.722656 1.640625 -2.394531 1.640625 -1.9375 L 1.640625 0 Z M 0.59375 0 "/></g></g></g><g fill="#ffffff" fill-opacity="1"><g transform="translate(8.234394, 8.836891)"><g><path d="M 4.09375 -1.84375 L 1.4375 -1.84375 C 1.46875 -1.476562 1.566406 -1.210938 1.734375 -1.046875 C 1.910156 -0.890625 2.148438 -0.8125 2.453125 -0.8125 C 2.691406 -0.8125 2.882812 -0.851562 3.03125 -0.9375 C 3.1875 -1.03125 3.304688 -1.164062 3.390625 -1.34375 L 3.46875 -1.34375 L 4.171875 -0.90625 C 4.035156 -0.613281 3.828125 -0.375 3.546875 -0.1875 C 3.273438 -0.0078125 2.910156 0.078125 2.453125 0.078125 C 2.023438 0.078125 1.65625 0 1.34375 -0.15625 C 1.03125 -0.320312 0.789062 -0.566406 0.625 -0.890625 C 0.457031 -1.210938 0.375 -1.609375 0.375 -2.078125 C 0.375 -2.546875 0.460938 -2.941406 0.640625 -3.265625 C 0.816406 -3.585938 1.054688 -3.828125 1.359375 -3.984375 C 1.660156 -4.148438 2.003906 -4.234375 2.390625 -4.234375 C 2.972656 -4.234375 3.421875 -4.078125 3.734375 -3.765625 C 4.046875 -3.453125 4.203125 -2.992188 4.203125 -2.390625 C 4.203125 -2.171875 4.191406 -2.003906 4.171875 -1.890625 Z M 3.203125 -2.515625 C 3.191406 -2.828125 3.117188 -3.054688 2.984375 -3.203125 C 2.847656 -3.347656 2.648438 -3.421875 2.390625 -3.421875 C 1.859375 -3.421875 1.546875 -3.117188 1.453125 -2.515625 Z M 3.203125 -2.515625 "/></g></g></g><g fill="#ffffff" fill-opacity="1"><g transform="translate(12.744971, 8.836891)"><g><path d="M 4.09375 -1.84375 L 1.4375 -1.84375 C 1.46875 -1.476562 1.566406 -1.210938 1.734375 -1.046875 C 1.910156 -0.890625 2.148438 -0.8125 2.453125 -0.8125 C 2.691406 -0.8125 2.882812 -0.851562 3.03125 -0.9375 C 3.1875 -1.03125 3.304688 -1.164062 3.390625 -1.34375 L 3.46875 -1.34375 L 4.171875 -0.90625 C 4.035156 -0.613281 3.828125 -0.375 3.546875 -0.1875 C 3.273438 -0.0078125 2.910156 0.078125 2.453125 0.078125 C 2.023438 0.078125 1.65625 0 1.34375 -0.15625 C 1.03125 -0.320312 0.789062 -0.566406 0.625 -0.890625 C 0.457031 -1.210938 0.375 -1.609375 0.375 -2.078125 C 0.375 -2.546875 0.460938 -2.941406 0.640625 -3.265625 C 0.816406 -3.585938 1.054688 -3.828125 1.359375 -3.984375 C 1.660156 -4.148438 2.003906 -4.234375 2.390625 -4.234375 C 2.972656 -4.234375 3.421875 -4.078125 3.734375 -3.765625 C 4.046875 -3.453125 4.203125 -2.992188 4.203125 -2.390625 C 4.203125 -2.171875 4.191406 -2.003906 4.171875 -1.890625 Z M 3.203125 -2.515625 C 3.191406 -2.828125 3.117188 -3.054688 2.984375 -3.203125 C 2.847656 -3.347656 2.648438 -3.421875 2.390625 -3.421875 C 1.859375 -3.421875 1.546875 -3.117188 1.453125 -2.515625 Z M 3.203125 -2.515625 "/></g></g></g></g></g></svg>