<svg xmlns="http://www.w3.org/2000/svg" xmlns:xlink="http://www.w3.org/1999/xlink" width="500" zoomAndPan="magnify" viewBox="0 0 375 374.999991" height="500" preserveAspectRatio="xMidYMid meet" version="1.0"><defs><g/><clipPath id="66701b8db6"><path d="M 193 0 L 373.125 0 L 373.125 181 L 193 181 Z M 193 0 " clip-rule="nonzero"/></clipPath><clipPath id="5cb087d8c2"><path d="M 1.875 50 L 326 50 L 326 375 L 1.875 375 Z M 1.875 50 " clip-rule="nonzero"/></clipPath></defs><path fill="#1a56f5" d="M 145.902344 149.085938 C 145.015625 146.734375 143.617188 144.894531 141.707031 143.570312 C 139.796875 142.246094 137.660156 141.582031 135.308594 141.582031 C 132.953125 141.4375 130.785156 142.027344 128.800781 143.347656 C 126.8125 144.671875 125.382812 146.585938 124.496094 149.085938 L 68.453125 284.5625 C 68.011719 285.886719 67.792969 287.066406 67.792969 288.089844 C 67.792969 290.886719 68.597656 293.203125 70.21875 295.042969 C 71.835938 296.882812 74.335938 297.800781 77.722656 297.800781 C 79.925781 297.800781 81.914062 297.136719 83.679688 295.8125 C 85.445312 294.488281 86.769531 292.652344 87.652344 290.296875 L 100.730469 258.964844 L 168.398438 258.964844 L 181.644531 290.296875 C 182.527344 292.503906 183.886719 294.304688 185.726562 295.703125 C 187.566406 297.101562 189.589844 297.800781 191.796875 297.800781 C 194.445312 297.800781 196.832031 296.808594 198.964844 294.820312 C 201.101562 292.835938 202.164062 290.226562 202.164062 286.988281 C 202.164062 285.519531 201.867188 284.050781 201.285156 282.578125 L 145.90625 149.085938 Z M 109.570312 237.78125 L 134.351562 178.417969 L 159.445312 237.78125 Z M 109.570312 237.78125 " fill-opacity="1" fill-rule="nonzero"/><path fill="#1a56f5" d="M 242.652344 145.664062 C 240.371094 143.53125 237.757812 142.464844 234.820312 142.464844 C 231.292969 142.464844 228.421875 143.53125 226.214844 145.664062 C 224.007812 147.796875 222.90625 150.484375 222.90625 153.71875 L 222.90625 285.664062 C 222.90625 288.898438 223.933594 291.585938 225.992188 293.71875 C 228.050781 295.851562 230.847656 296.917969 234.378906 296.917969 C 237.46875 296.917969 240.152344 295.851562 242.433594 293.71875 C 244.714844 291.585938 245.925781 288.902344 246.074219 285.664062 L 246.074219 153.71875 C 246.074219 150.484375 244.933594 147.800781 242.65625 145.664062 Z M 242.652344 145.664062 " fill-opacity="1" fill-rule="nonzero"/><g clip-path="url(#66701b8db6)"><path fill="#1a56f5" d="M 369.910156 86.640625 L 369.910156 86.628906 C 369.910156 86.628906 369.578125 86.585938 369.578125 86.585938 L 368.460938 86.429688 C 368.460938 86.429688 368.441406 86.425781 368.429688 86.425781 L 368.257812 86.402344 L 368.265625 86.410156 C 356.367188 85.492188 345 82.546875 334.691406 77.464844 C 326.105469 73.460938 318.214844 68.050781 311.328125 61.164062 C 296.070312 45.90625 288.039062 25.757812 286.617188 3.929688 C 286.613281 3.847656 286.605469 3.761719 286.597656 3.675781 C 286.578125 3.402344 286.550781 3.121094 286.535156 2.84375 C 286.160156 1.285156 284.765625 0.121094 283.089844 0.121094 C 281.226562 0.121094 279.710938 1.5625 279.5625 3.386719 L 279.550781 3.386719 C 279.550781 3.386719 279.511719 3.675781 279.511719 3.675781 L 279.351562 4.859375 C 279.351562 4.859375 279.351562 4.878906 279.347656 4.890625 L 279.324219 5.066406 L 279.332031 5.058594 C 277.902344 23.886719 271.523438 41.417969 259.792969 55.574219 C 258.015625 57.773438 256.117188 59.894531 254.085938 61.925781 C 238.832031 77.183594 218.683594 85.214844 196.851562 86.636719 C 196.769531 86.640625 196.683594 86.648438 196.597656 86.65625 C 196.324219 86.675781 196.046875 86.703125 195.769531 86.71875 C 194.207031 87.09375 193.042969 88.492188 193.042969 90.164062 C 193.042969 92.03125 194.484375 93.542969 196.3125 93.691406 L 196.3125 93.703125 C 196.3125 93.703125 196.597656 93.742188 196.597656 93.742188 L 197.777344 93.902344 C 197.777344 93.902344 197.800781 93.90625 197.808594 93.910156 L 197.984375 93.933594 L 197.976562 93.925781 C 219.371094 95.550781 239.089844 103.554688 254.082031 118.546875 C 259.039062 123.503906 263.222656 128.980469 266.679688 134.859375 C 274.332031 147.199219 278.5625 161.421875 279.558594 176.460938 C 279.5625 176.527344 279.566406 176.59375 279.574219 176.664062 C 279.597656 176.953125 279.621094 177.238281 279.640625 177.53125 C 280.011719 179.070312 281.410156 180.21875 283.085938 180.21875 C 284.949219 180.21875 286.460938 178.796875 286.613281 176.996094 L 286.621094 176.996094 C 286.621094 176.996094 286.667969 176.664062 286.667969 176.664062 L 286.824219 175.546875 C 286.824219 175.546875 286.824219 175.523438 286.828125 175.515625 L 286.851562 175.339844 L 286.84375 175.347656 C 288.417969 154.890625 296.015625 135.992188 310.148438 121.382812 C 311.050781 120.375 311.976562 119.382812 312.933594 118.410156 C 327.976562 103.15625 347.847656 95.125 369.375 93.703125 C 369.441406 93.695312 369.507812 93.691406 369.574219 93.6875 C 369.859375 93.664062 370.148438 93.636719 370.441406 93.621094 C 371.980469 93.246094 373.128906 91.847656 373.128906 90.171875 C 373.128906 88.308594 371.707031 86.796875 369.90625 86.648438 Z M 369.910156 86.640625 " fill-opacity="1" fill-rule="nonzero"/></g><g clip-path="url(#5cb087d8c2)"><path fill="#1a56f5" d="M 303.980469 178.332031 L 303.980469 331.207031 C 303.980469 343.265625 294.199219 353.042969 282.140625 353.042969 L 45.554688 353.042969 C 33.492188 353.042969 23.714844 343.265625 23.714844 331.207031 L 23.714844 94.617188 C 23.714844 82.554688 33.492188 72.777344 45.554688 72.777344 L 194.785156 72.777344 C 200.8125 72.777344 205.703125 67.886719 205.703125 61.859375 C 205.703125 55.828125 200.8125 50.941406 194.785156 50.941406 L 45.554688 50.941406 C 21.429688 50.941406 1.875 70.492188 1.875 94.617188 L 1.875 331.203125 C 1.875 355.324219 21.429688 374.882812 45.554688 374.882812 L 282.140625 374.882812 C 306.261719 374.882812 325.816406 355.324219 325.816406 331.203125 L 325.816406 178.332031 C 325.816406 172.300781 320.929688 167.410156 314.898438 167.410156 C 308.871094 167.410156 303.980469 172.300781 303.980469 178.332031 Z M 303.980469 178.332031 " fill-opacity="1" fill-rule="nonzero"/></g><g fill="#ffffff" fill-opacity="1"><g transform="translate(317.751077, 201.641089)"><g><path d="M -7.875 -6.3125 L -6.5625 -6.3125 L -6.5625 -4.046875 L 0 -4.046875 L 0 -2.484375 L -6.5625 -2.484375 L -6.5625 -0.21875 L -7.875 -0.21875 Z M -7.875 -6.3125 "/></g></g></g><g fill="#ffffff" fill-opacity="1"><g transform="translate(317.751077, 195.880088)"><g><path d="M 0.109375 -3.453125 C 0.109375 -2.867188 -0.0078125 -2.359375 -0.25 -1.921875 C -0.488281 -1.484375 -0.835938 -1.140625 -1.296875 -0.890625 C -1.753906 -0.648438 -2.3125 -0.53125 -2.96875 -0.53125 C -3.625 -0.53125 -4.179688 -0.648438 -4.640625 -0.890625 C -5.109375 -1.140625 -5.457031 -1.484375 -5.6875 -1.921875 C -5.925781 -2.359375 -6.046875 -2.867188 -6.046875 -3.453125 C -6.046875 -4.035156 -5.925781 -4.546875 -5.6875 -4.984375 C -5.457031 -5.421875 -5.109375 -5.757812 -4.640625 -6 C -4.179688 -6.25 -3.625 -6.375 -2.96875 -6.375 C -2.3125 -6.375 -1.753906 -6.25 -1.296875 -6 C -0.835938 -5.757812 -0.488281 -5.421875 -0.25 -4.984375 C -0.0078125 -4.546875 0.109375 -4.035156 0.109375 -3.453125 Z M -1.15625 -3.453125 C -1.15625 -4.378906 -1.757812 -4.84375 -2.96875 -4.84375 C -3.59375 -4.84375 -4.050781 -4.722656 -4.34375 -4.484375 C -4.632812 -4.242188 -4.78125 -3.898438 -4.78125 -3.453125 C -4.78125 -2.523438 -4.175781 -2.0625 -2.96875 -2.0625 C -1.757812 -2.0625 -1.15625 -2.523438 -1.15625 -3.453125 Z M -1.15625 -3.453125 "/></g></g></g><g fill="#ffffff" fill-opacity="1"><g transform="translate(317.751077, 188.97723)"><g><path d="M 0.109375 -3.453125 C 0.109375 -2.867188 -0.0078125 -2.359375 -0.25 -1.921875 C -0.488281 -1.484375 -0.835938 -1.140625 -1.296875 -0.890625 C -1.753906 -0.648438 -2.3125 -0.53125 -2.96875 -0.53125 C -3.625 -0.53125 -4.179688 -0.648438 -4.640625 -0.890625 C -5.109375 -1.140625 -5.457031 -1.484375 -5.6875 -1.921875 C -5.925781 -2.359375 -6.046875 -2.867188 -6.046875 -3.453125 C -6.046875 -4.035156 -5.925781 -4.546875 -5.6875 -4.984375 C -5.457031 -5.421875 -5.109375 -5.757812 -4.640625 -6 C -4.179688 -6.25 -3.625 -6.375 -2.96875 -6.375 C -2.3125 -6.375 -1.753906 -6.25 -1.296875 -6 C -0.835938 -5.757812 -0.488281 -5.421875 -0.25 -4.984375 C -0.0078125 -4.546875 0.109375 -4.035156 0.109375 -3.453125 Z M -1.15625 -3.453125 C -1.15625 -4.378906 -1.757812 -4.84375 -2.96875 -4.84375 C -3.59375 -4.84375 -4.050781 -4.722656 -4.34375 -4.484375 C -4.632812 -4.242188 -4.78125 -3.898438 -4.78125 -3.453125 C -4.78125 -2.523438 -4.175781 -2.0625 -2.96875 -2.0625 C -1.757812 -2.0625 -1.15625 -2.523438 -1.15625 -3.453125 Z M -1.15625 -3.453125 "/></g></g></g><g fill="#ffffff" fill-opacity="1"><g transform="translate(317.751077, 182.074371)"><g><path d="M 0.109375 -2.46875 C 0.109375 -1.9375 -0.03125 -1.523438 -0.3125 -1.234375 C -0.601562 -0.953125 -1.046875 -0.8125 -1.640625 -0.8125 L -8.328125 -0.8125 L -8.328125 -2.3125 L -1.703125 -2.3125 C -1.335938 -2.3125 -1.15625 -2.460938 -1.15625 -2.765625 C -1.15625 -2.847656 -1.171875 -2.9375 -1.203125 -3.03125 L -1.171875 -3.109375 L -0.03125 -3.25 C 0.0078125 -3.164062 0.0390625 -3.054688 0.0625 -2.921875 C 0.09375 -2.785156 0.109375 -2.632812 0.109375 -2.46875 Z M 0.109375 -2.46875 "/></g></g></g><g fill="#ffffff" fill-opacity="1"><g transform="translate(317.751077, 178.660633)"><g><path d="M 0 -4.984375 L 0 -0.3125 L -1.234375 -0.3125 L -4.640625 -3.1875 L -4.765625 -3.15625 L -4.765625 -0.453125 L -5.953125 -0.453125 L -5.953125 -4.9375 L -4.71875 -4.9375 L -1.296875 -2.0625 L -1.1875 -2.109375 L -1.1875 -4.984375 Z M 0 -4.984375 "/></g></g></g><g fill="#ffffff" fill-opacity="1"><g transform="translate(175.672448, 64.17469)"><g><path d="M 6.015625 -7.875 L 6.015625 -6.578125 L 2.578125 -6.578125 L 2.578125 -4.484375 L 5.703125 -4.484375 L 5.703125 -3.203125 L 2.578125 -3.203125 L 2.578125 0 L 1.015625 0 L 1.015625 -7.875 Z M 6.015625 -7.875 "/></g></g></g><g fill="#ffffff" fill-opacity="1"><g transform="translate(181.902188, 64.17469)"><g><path d="M 0.859375 0 L 0.859375 -5.9375 L 2.3125 -5.9375 L 2.3125 -5.0625 L 2.421875 -5.03125 C 2.566406 -5.363281 2.753906 -5.609375 2.984375 -5.765625 C 3.210938 -5.921875 3.492188 -6 3.828125 -6 C 4.171875 -6 4.429688 -5.941406 4.609375 -5.828125 L 4.359375 -4.53125 L 4.234375 -4.515625 C 4.140625 -4.554688 4.046875 -4.582031 3.953125 -4.59375 C 3.867188 -4.613281 3.757812 -4.625 3.625 -4.625 C 3.207031 -4.625 2.890625 -4.476562 2.671875 -4.1875 C 2.453125 -3.894531 2.34375 -3.425781 2.34375 -2.78125 L 2.34375 0 Z M 0.859375 0 "/></g></g></g><g fill="#ffffff" fill-opacity="1"><g transform="translate(186.403515, 64.17469)"><g><path d="M 5.875 -2.640625 L 2.046875 -2.640625 C 2.085938 -2.117188 2.234375 -1.738281 2.484375 -1.5 C 2.742188 -1.269531 3.085938 -1.15625 3.515625 -1.15625 C 3.859375 -1.15625 4.132812 -1.21875 4.34375 -1.34375 C 4.5625 -1.46875 4.734375 -1.660156 4.859375 -1.921875 L 4.984375 -1.921875 L 5.96875 -1.28125 C 5.769531 -0.863281 5.472656 -0.523438 5.078125 -0.265625 C 4.691406 -0.015625 4.171875 0.109375 3.515625 0.109375 C 2.910156 0.109375 2.382812 -0.00390625 1.9375 -0.234375 C 1.488281 -0.472656 1.140625 -0.820312 0.890625 -1.28125 C 0.648438 -1.738281 0.53125 -2.300781 0.53125 -2.96875 C 0.53125 -3.644531 0.65625 -4.210938 0.90625 -4.671875 C 1.164062 -5.140625 1.515625 -5.484375 1.953125 -5.703125 C 2.390625 -5.929688 2.878906 -6.046875 3.421875 -6.046875 C 4.253906 -6.046875 4.894531 -5.820312 5.34375 -5.375 C 5.789062 -4.9375 6.015625 -4.285156 6.015625 -3.421875 C 6.015625 -3.109375 6.003906 -2.867188 5.984375 -2.703125 Z M 4.59375 -3.59375 C 4.570312 -4.050781 4.460938 -4.378906 4.265625 -4.578125 C 4.078125 -4.785156 3.796875 -4.890625 3.421875 -4.890625 C 2.660156 -4.890625 2.210938 -4.457031 2.078125 -3.59375 Z M 4.59375 -3.59375 "/></g></g></g><g fill="#ffffff" fill-opacity="1"><g transform="translate(192.85947, 64.17469)"><g><path d="M 5.875 -2.640625 L 2.046875 -2.640625 C 2.085938 -2.117188 2.234375 -1.738281 2.484375 -1.5 C 2.742188 -1.269531 3.085938 -1.15625 3.515625 -1.15625 C 3.859375 -1.15625 4.132812 -1.21875 4.34375 -1.34375 C 4.5625 -1.46875 4.734375 -1.660156 4.859375 -1.921875 L 4.984375 -1.921875 L 5.96875 -1.28125 C 5.769531 -0.863281 5.472656 -0.523438 5.078125 -0.265625 C 4.691406 -0.015625 4.171875 0.109375 3.515625 0.109375 C 2.910156 0.109375 2.382812 -0.00390625 1.9375 -0.234375 C 1.488281 -0.472656 1.140625 -0.820312 0.890625 -1.28125 C 0.648438 -1.738281 0.53125 -2.300781 0.53125 -2.96875 C 0.53125 -3.644531 0.65625 -4.210938 0.90625 -4.671875 C 1.164062 -5.140625 1.515625 -5.484375 1.953125 -5.703125 C 2.390625 -5.929688 2.878906 -6.046875 3.421875 -6.046875 C 4.253906 -6.046875 4.894531 -5.820312 5.34375 -5.375 C 5.789062 -4.9375 6.015625 -4.285156 6.015625 -3.421875 C 6.015625 -3.109375 6.003906 -2.867188 5.984375 -2.703125 Z M 4.59375 -3.59375 C 4.570312 -4.050781 4.460938 -4.378906 4.265625 -4.578125 C 4.078125 -4.785156 3.796875 -4.890625 3.421875 -4.890625 C 2.660156 -4.890625 2.210938 -4.457031 2.078125 -3.59375 Z M 4.59375 -3.59375 "/></g></g></g></svg>